<mxfile host="65bd71144e" scale="1" border="0">
    <diagram id="bKu-BhhGu8HduYXDBCY8" name="CU-04">
        <mxGraphModel dx="797" dy="507" grid="1" gridSize="10" guides="1" tooltips="1" connect="1" arrows="1" fold="1" page="1" pageScale="1" pageWidth="827" pageHeight="1169" math="0" shadow="0">
            <root>
                <mxCell id="n4pDov9S_x4WmA5yypZS-0"/>
                <mxCell id="n4pDov9S_x4WmA5yypZS-1" parent="n4pDov9S_x4WmA5yypZS-0"/>
                <mxCell id="Rf1EGdy4jamaxvFMJreM-0" value="Empleado" style="shape=umlActor;verticalLabelPosition=bottom;verticalAlign=top;html=1;outlineConnect=0;" parent="n4pDov9S_x4WmA5yypZS-1" vertex="1">
                    <mxGeometry x="82" y="309" width="34" height="66" as="geometry"/>
                </mxCell>
                <mxCell id="Rf1EGdy4jamaxvFMJreM-1" value="Administrador&lt;br&gt;" style="shape=umlActor;verticalLabelPosition=bottom;verticalAlign=top;html=1;outlineConnect=0;" parent="n4pDov9S_x4WmA5yypZS-1" vertex="1">
                    <mxGeometry x="85" y="673" width="30" height="60" as="geometry"/>
                </mxCell>
                <mxCell id="Rf1EGdy4jamaxvFMJreM-2" value="Alumno&lt;br&gt;" style="shape=umlActor;verticalLabelPosition=bottom;verticalAlign=top;html=1;outlineConnect=0;" parent="n4pDov9S_x4WmA5yypZS-1" vertex="1">
                    <mxGeometry x="686" y="200" width="30" height="60" as="geometry"/>
                </mxCell>
                <mxCell id="Rf1EGdy4jamaxvFMJreM-3" value="" style="rounded=0;whiteSpace=wrap;html=1;" parent="n4pDov9S_x4WmA5yypZS-1" vertex="1">
                    <mxGeometry x="320.75" y="40" width="210" height="210" as="geometry"/>
                </mxCell>
                <mxCell id="Rf1EGdy4jamaxvFMJreM-4" value="&lt;span&gt;MÓDULO INCIDENCIAS&lt;/span&gt;" style="text;html=1;strokeColor=none;fillColor=none;align=center;verticalAlign=middle;whiteSpace=wrap;rounded=0;" parent="n4pDov9S_x4WmA5yypZS-1" vertex="1">
                    <mxGeometry x="355.75" y="43" width="140" height="30" as="geometry"/>
                </mxCell>
                <mxCell id="Rf1EGdy4jamaxvFMJreM-5" value="Registrar Incidencia" style="ellipse;whiteSpace=wrap;html=1;" parent="n4pDov9S_x4WmA5yypZS-1" vertex="1">
                    <mxGeometry x="365.75" y="73" width="120" height="20" as="geometry"/>
                </mxCell>
                <mxCell id="Rf1EGdy4jamaxvFMJreM-6" value="Eliminar Incidencia" style="ellipse;whiteSpace=wrap;html=1;" parent="n4pDov9S_x4WmA5yypZS-1" vertex="1">
                    <mxGeometry x="365.75" y="98" width="120" height="20" as="geometry"/>
                </mxCell>
                <mxCell id="Rf1EGdy4jamaxvFMJreM-7" value="Modificar Incidencia" style="ellipse;whiteSpace=wrap;html=1;" parent="n4pDov9S_x4WmA5yypZS-1" vertex="1">
                    <mxGeometry x="365.75" y="123" width="120" height="20" as="geometry"/>
                </mxCell>
                <mxCell id="Rf1EGdy4jamaxvFMJreM-8" value="Listar Incidencias" style="ellipse;whiteSpace=wrap;html=1;" parent="n4pDov9S_x4WmA5yypZS-1" vertex="1">
                    <mxGeometry x="364.75" y="226" width="120" height="20" as="geometry"/>
                </mxCell>
                <mxCell id="Rf1EGdy4jamaxvFMJreM-11" value="" style="rounded=0;whiteSpace=wrap;html=1;" parent="n4pDov9S_x4WmA5yypZS-1" vertex="1">
                    <mxGeometry x="320.75" y="259" width="210" height="130" as="geometry"/>
                </mxCell>
                <mxCell id="Rf1EGdy4jamaxvFMJreM-16" value="Atender Incidencia" style="ellipse;whiteSpace=wrap;html=1;" parent="n4pDov9S_x4WmA5yypZS-1" vertex="1">
                    <mxGeometry x="364.26" y="148" width="120" height="23" as="geometry"/>
                </mxCell>
                <mxCell id="Rf1EGdy4jamaxvFMJreM-17" value="Derivar Incidencia" style="ellipse;whiteSpace=wrap;html=1;" parent="n4pDov9S_x4WmA5yypZS-1" vertex="1">
                    <mxGeometry x="364.26" y="176" width="120" height="20" as="geometry"/>
                </mxCell>
                <mxCell id="Rf1EGdy4jamaxvFMJreM-19" value="&lt;span&gt;M&lt;/span&gt;Ó&lt;span&gt;DULO SERVICIOS&lt;/span&gt;" style="text;html=1;strokeColor=none;fillColor=none;align=center;verticalAlign=middle;whiteSpace=wrap;rounded=0;" parent="n4pDov9S_x4WmA5yypZS-1" vertex="1">
                    <mxGeometry x="355.75" y="260" width="140" height="30" as="geometry"/>
                </mxCell>
                <mxCell id="Rf1EGdy4jamaxvFMJreM-20" value="Listar Servicios" style="ellipse;whiteSpace=wrap;html=1;" parent="n4pDov9S_x4WmA5yypZS-1" vertex="1">
                    <mxGeometry x="365.63" y="361" width="123.25" height="21" as="geometry"/>
                </mxCell>
                <UserObject label="Registrar Servicio" sdds="" id="Rf1EGdy4jamaxvFMJreM-21">
                    <mxCell style="ellipse;whiteSpace=wrap;html=1;" parent="n4pDov9S_x4WmA5yypZS-1" vertex="1">
                        <mxGeometry x="365.75" y="288" width="120" height="20" as="geometry"/>
                    </mxCell>
                </UserObject>
                <mxCell id="Rf1EGdy4jamaxvFMJreM-22" value="Eliminar Servicio" style="ellipse;whiteSpace=wrap;html=1;" parent="n4pDov9S_x4WmA5yypZS-1" vertex="1">
                    <mxGeometry x="365.75" y="313" width="120" height="20" as="geometry"/>
                </mxCell>
                <mxCell id="Rf1EGdy4jamaxvFMJreM-23" value="Modificar Servicio" style="ellipse;whiteSpace=wrap;html=1;" parent="n4pDov9S_x4WmA5yypZS-1" vertex="1">
                    <mxGeometry x="365.75" y="337" width="120" height="20" as="geometry"/>
                </mxCell>
                <mxCell id="Rf1EGdy4jamaxvFMJreM-24" value="" style="rounded=0;whiteSpace=wrap;html=1;" parent="n4pDov9S_x4WmA5yypZS-1" vertex="1">
                    <mxGeometry x="320.75" y="395.5" width="210" height="130.5" as="geometry"/>
                </mxCell>
                <mxCell id="Rf1EGdy4jamaxvFMJreM-25" value="&lt;span&gt;M&lt;/span&gt;Ó&lt;span&gt;DULO ACTIVOS&lt;/span&gt;" style="text;html=1;strokeColor=none;fillColor=none;align=center;verticalAlign=middle;whiteSpace=wrap;rounded=0;" parent="n4pDov9S_x4WmA5yypZS-1" vertex="1">
                    <mxGeometry x="353.75" y="397" width="140" height="30" as="geometry"/>
                </mxCell>
                <mxCell id="Rf1EGdy4jamaxvFMJreM-26" value="Listar Activos" style="ellipse;whiteSpace=wrap;html=1;" parent="n4pDov9S_x4WmA5yypZS-1" vertex="1">
                    <mxGeometry x="366.25" y="497.5" width="120" height="21" as="geometry"/>
                </mxCell>
                <mxCell id="Rf1EGdy4jamaxvFMJreM-27" value="Registrar Activo" style="ellipse;whiteSpace=wrap;html=1;" parent="n4pDov9S_x4WmA5yypZS-1" vertex="1">
                    <mxGeometry x="365.25" y="425" width="120" height="20" as="geometry"/>
                </mxCell>
                <mxCell id="Rf1EGdy4jamaxvFMJreM-28" value="Eliminar Activo" style="ellipse;whiteSpace=wrap;html=1;" parent="n4pDov9S_x4WmA5yypZS-1" vertex="1">
                    <mxGeometry x="365.25" y="449" width="120" height="20" as="geometry"/>
                </mxCell>
                <mxCell id="Rf1EGdy4jamaxvFMJreM-29" value="Modificar Activo" style="ellipse;whiteSpace=wrap;html=1;" parent="n4pDov9S_x4WmA5yypZS-1" vertex="1">
                    <mxGeometry x="365.25" y="473" width="120" height="20" as="geometry"/>
                </mxCell>
                <mxCell id="Rf1EGdy4jamaxvFMJreM-30" value="" style="rounded=0;whiteSpace=wrap;html=1;" parent="n4pDov9S_x4WmA5yypZS-1" vertex="1">
                    <mxGeometry x="320.75" y="533" width="210" height="120" as="geometry"/>
                </mxCell>
                <mxCell id="Rf1EGdy4jamaxvFMJreM-31" value="&lt;span&gt;M&lt;/span&gt;Ó&lt;span&gt;DULO PERSONAS&lt;/span&gt;" style="text;html=1;strokeColor=none;fillColor=none;align=center;verticalAlign=middle;whiteSpace=wrap;rounded=0;" parent="n4pDov9S_x4WmA5yypZS-1" vertex="1">
                    <mxGeometry x="358.25" y="531" width="140" height="30" as="geometry"/>
                </mxCell>
                <mxCell id="Rf1EGdy4jamaxvFMJreM-32" value="Listar Personas" style="ellipse;whiteSpace=wrap;html=1;" parent="n4pDov9S_x4WmA5yypZS-1" vertex="1">
                    <mxGeometry x="365.5" y="627" width="119" height="22" as="geometry"/>
                </mxCell>
                <mxCell id="Rf1EGdy4jamaxvFMJreM-33" value="Registrar Persona" style="ellipse;whiteSpace=wrap;html=1;" parent="n4pDov9S_x4WmA5yypZS-1" vertex="1">
                    <mxGeometry x="366" y="558" width="120" height="20" as="geometry"/>
                </mxCell>
                <mxCell id="Rf1EGdy4jamaxvFMJreM-34" value="Eliminar Persona" style="ellipse;whiteSpace=wrap;html=1;" parent="n4pDov9S_x4WmA5yypZS-1" vertex="1">
                    <mxGeometry x="366" y="581" width="120" height="20" as="geometry"/>
                </mxCell>
                <mxCell id="Rf1EGdy4jamaxvFMJreM-35" value="Modificar Persona" style="ellipse;whiteSpace=wrap;html=1;" parent="n4pDov9S_x4WmA5yypZS-1" vertex="1">
                    <mxGeometry x="366" y="604" width="120" height="20" as="geometry"/>
                </mxCell>
                <mxCell id="Rf1EGdy4jamaxvFMJreM-36" value="" style="rounded=0;whiteSpace=wrap;html=1;" parent="n4pDov9S_x4WmA5yypZS-1" vertex="1">
                    <mxGeometry x="321" y="660" width="210" height="91" as="geometry"/>
                </mxCell>
                <mxCell id="Rf1EGdy4jamaxvFMJreM-37" value="&lt;span&gt;M&lt;/span&gt;ÓD&lt;span&gt;ULO CONFIGURACIONES&lt;/span&gt;" style="text;html=1;strokeColor=none;fillColor=none;align=center;verticalAlign=middle;whiteSpace=wrap;rounded=0;" parent="n4pDov9S_x4WmA5yypZS-1" vertex="1">
                    <mxGeometry x="336.25" y="666" width="180" height="30" as="geometry"/>
                </mxCell>
                <mxCell id="Rf1EGdy4jamaxvFMJreM-38" value="Gestionar Seguridad" style="ellipse;whiteSpace=wrap;html=1;fontFamily=Helvetica;" parent="n4pDov9S_x4WmA5yypZS-1" vertex="1">
                    <mxGeometry x="364" y="692" width="120" height="22" as="geometry"/>
                </mxCell>
                <mxCell id="Rf1EGdy4jamaxvFMJreM-42" value="HDWeTIL" style="text;html=1;strokeColor=none;fillColor=none;align=center;verticalAlign=middle;whiteSpace=wrap;rounded=0;fontStyle=2" parent="n4pDov9S_x4WmA5yypZS-1" vertex="1">
                    <mxGeometry x="395.25" y="21" width="60" height="30" as="geometry"/>
                </mxCell>
                <mxCell id="Rf1EGdy4jamaxvFMJreM-43" style="edgeStyle=none;html=1;endArrow=none;endFill=0;exitX=0.5;exitY=0.5;exitDx=0;exitDy=0;exitPerimeter=0;entryX=0;entryY=0.5;entryDx=0;entryDy=0;" parent="n4pDov9S_x4WmA5yypZS-1" source="Rf1EGdy4jamaxvFMJreM-1" target="Rf1EGdy4jamaxvFMJreM-38" edge="1">
                    <mxGeometry relative="1" as="geometry">
                        <mxPoint x="120" y="694.100386100386" as="sourcePoint"/>
                        <mxPoint x="250" y="730" as="targetPoint"/>
                    </mxGeometry>
                </mxCell>
                <mxCell id="Rf1EGdy4jamaxvFMJreM-44" style="edgeStyle=none;html=1;entryX=1;entryY=0.5;entryDx=0;entryDy=0;endArrow=none;endFill=0;exitX=0;exitY=0.3333333333333333;exitDx=0;exitDy=0;exitPerimeter=0;" parent="n4pDov9S_x4WmA5yypZS-1" source="Rf1EGdy4jamaxvFMJreM-2" target="Rf1EGdy4jamaxvFMJreM-8" edge="1">
                    <mxGeometry relative="1" as="geometry">
                        <mxPoint x="670" y="192" as="sourcePoint"/>
                    </mxGeometry>
                </mxCell>
                <mxCell id="Rf1EGdy4jamaxvFMJreM-49" style="edgeStyle=none;html=1;exitX=1;exitY=0.3333333333333333;exitDx=0;exitDy=0;exitPerimeter=0;entryX=0;entryY=0.5;entryDx=0;entryDy=0;endArrow=none;endFill=0;" parent="n4pDov9S_x4WmA5yypZS-1" source="Rf1EGdy4jamaxvFMJreM-0" target="Rf1EGdy4jamaxvFMJreM-20" edge="1">
                    <mxGeometry relative="1" as="geometry"/>
                </mxCell>
                <mxCell id="Rf1EGdy4jamaxvFMJreM-50" style="edgeStyle=none;html=1;exitX=1;exitY=0.3333333333333333;exitDx=0;exitDy=0;exitPerimeter=0;entryX=0;entryY=0.5;entryDx=0;entryDy=0;endArrow=none;endFill=0;" parent="n4pDov9S_x4WmA5yypZS-1" source="Rf1EGdy4jamaxvFMJreM-0" target="Rf1EGdy4jamaxvFMJreM-26" edge="1">
                    <mxGeometry relative="1" as="geometry"/>
                </mxCell>
                <mxCell id="Rf1EGdy4jamaxvFMJreM-51" style="edgeStyle=none;html=1;exitX=1;exitY=0.3333333333333333;exitDx=0;exitDy=0;exitPerimeter=0;entryX=0;entryY=0.5;entryDx=0;entryDy=0;endArrow=none;endFill=0;" parent="n4pDov9S_x4WmA5yypZS-1" source="Rf1EGdy4jamaxvFMJreM-0" target="Rf1EGdy4jamaxvFMJreM-32" edge="1">
                    <mxGeometry relative="1" as="geometry"/>
                </mxCell>
                <mxCell id="Rf1EGdy4jamaxvFMJreM-53" style="edgeStyle=none;html=1;exitX=1;exitY=0.3333333333333333;exitDx=0;exitDy=0;exitPerimeter=0;endArrow=none;endFill=0;entryX=0;entryY=0.5;entryDx=0;entryDy=0;" parent="n4pDov9S_x4WmA5yypZS-1" source="Rf1EGdy4jamaxvFMJreM-0" target="Rf1EGdy4jamaxvFMJreM-16" edge="1">
                    <mxGeometry relative="1" as="geometry">
                        <mxPoint x="220" y="456.8571428571429" as="targetPoint"/>
                    </mxGeometry>
                </mxCell>
                <mxCell id="Rf1EGdy4jamaxvFMJreM-54" style="edgeStyle=none;html=1;exitX=1;exitY=0.3333333333333333;exitDx=0;exitDy=0;exitPerimeter=0;entryX=0;entryY=0.5;entryDx=0;entryDy=0;endArrow=none;endFill=0;" parent="n4pDov9S_x4WmA5yypZS-1" source="Rf1EGdy4jamaxvFMJreM-0" target="Rf1EGdy4jamaxvFMJreM-17" edge="1">
                    <mxGeometry relative="1" as="geometry"/>
                </mxCell>
                <mxCell id="Rf1EGdy4jamaxvFMJreM-56" style="edgeStyle=none;html=1;exitX=1;exitY=0.3333333333333333;exitDx=0;exitDy=0;exitPerimeter=0;entryX=0;entryY=0.5;entryDx=0;entryDy=0;endArrow=none;endFill=0;" parent="n4pDov9S_x4WmA5yypZS-1" source="Rf1EGdy4jamaxvFMJreM-0" target="Rf1EGdy4jamaxvFMJreM-21" edge="1">
                    <mxGeometry relative="1" as="geometry"/>
                </mxCell>
                <mxCell id="_wPPTLbspj4OPMHZOY2y-2" style="edgeStyle=none;html=1;exitX=0;exitY=0.3333333333333333;exitDx=0;exitDy=0;exitPerimeter=0;entryX=1;entryY=0.5;entryDx=0;entryDy=0;endArrow=none;endFill=0;" parent="n4pDov9S_x4WmA5yypZS-1" source="Rf1EGdy4jamaxvFMJreM-2" target="Rf1EGdy4jamaxvFMJreM-20" edge="1">
                    <mxGeometry relative="1" as="geometry">
                        <mxPoint x="686" y="226" as="sourcePoint"/>
                    </mxGeometry>
                </mxCell>
                <mxCell id="_wPPTLbspj4OPMHZOY2y-3" style="edgeStyle=none;html=1;exitX=0;exitY=0.3333333333333333;exitDx=0;exitDy=0;exitPerimeter=0;entryX=1;entryY=0.5;entryDx=0;entryDy=0;endArrow=none;endFill=0;" parent="n4pDov9S_x4WmA5yypZS-1" source="Rf1EGdy4jamaxvFMJreM-2" target="Rf1EGdy4jamaxvFMJreM-26" edge="1">
                    <mxGeometry relative="1" as="geometry">
                        <mxPoint x="686" y="227" as="sourcePoint"/>
                        <mxPoint x="486.25" y="662" as="targetPoint"/>
                    </mxGeometry>
                </mxCell>
                <mxCell id="_wPPTLbspj4OPMHZOY2y-4" style="edgeStyle=none;html=1;exitX=1;exitY=0.3333333333333333;exitDx=0;exitDy=0;exitPerimeter=0;entryX=0;entryY=0.5;entryDx=0;entryDy=0;endArrow=none;endFill=0;" parent="n4pDov9S_x4WmA5yypZS-1" source="Rf1EGdy4jamaxvFMJreM-0" target="Rf1EGdy4jamaxvFMJreM-22" edge="1">
                    <mxGeometry relative="1" as="geometry"/>
                </mxCell>
                <mxCell id="_wPPTLbspj4OPMHZOY2y-5" style="edgeStyle=none;html=1;exitX=1;exitY=0.3333333333333333;exitDx=0;exitDy=0;exitPerimeter=0;entryX=0;entryY=0.5;entryDx=0;entryDy=0;endArrow=none;endFill=0;" parent="n4pDov9S_x4WmA5yypZS-1" source="Rf1EGdy4jamaxvFMJreM-0" target="Rf1EGdy4jamaxvFMJreM-23" edge="1">
                    <mxGeometry relative="1" as="geometry"/>
                </mxCell>
                <mxCell id="_wPPTLbspj4OPMHZOY2y-6" style="edgeStyle=none;html=1;exitX=1;exitY=0.3333333333333333;exitDx=0;exitDy=0;exitPerimeter=0;endArrow=none;endFill=0;entryX=0;entryY=0.5;entryDx=0;entryDy=0;" parent="n4pDov9S_x4WmA5yypZS-1" source="Rf1EGdy4jamaxvFMJreM-0" target="Rf1EGdy4jamaxvFMJreM-27" edge="1">
                    <mxGeometry relative="1" as="geometry">
                        <mxPoint x="300" y="435" as="targetPoint"/>
                    </mxGeometry>
                </mxCell>
                <mxCell id="_wPPTLbspj4OPMHZOY2y-7" style="edgeStyle=none;html=1;exitX=1;exitY=0.3333333333333333;exitDx=0;exitDy=0;exitPerimeter=0;entryX=0;entryY=0.5;entryDx=0;entryDy=0;endArrow=none;endFill=0;" parent="n4pDov9S_x4WmA5yypZS-1" source="Rf1EGdy4jamaxvFMJreM-0" target="Rf1EGdy4jamaxvFMJreM-28" edge="1">
                    <mxGeometry relative="1" as="geometry"/>
                </mxCell>
                <mxCell id="_wPPTLbspj4OPMHZOY2y-8" style="edgeStyle=none;html=1;exitX=1;exitY=0.3333333333333333;exitDx=0;exitDy=0;exitPerimeter=0;entryX=0;entryY=0.5;entryDx=0;entryDy=0;endArrow=none;endFill=0;" parent="n4pDov9S_x4WmA5yypZS-1" source="Rf1EGdy4jamaxvFMJreM-0" target="Rf1EGdy4jamaxvFMJreM-29" edge="1">
                    <mxGeometry relative="1" as="geometry"/>
                </mxCell>
                <mxCell id="_wPPTLbspj4OPMHZOY2y-9" style="edgeStyle=none;html=1;exitX=1;exitY=0.3333333333333333;exitDx=0;exitDy=0;exitPerimeter=0;entryX=0;entryY=0.5;entryDx=0;entryDy=0;endArrow=none;endFill=0;" parent="n4pDov9S_x4WmA5yypZS-1" source="Rf1EGdy4jamaxvFMJreM-0" target="Rf1EGdy4jamaxvFMJreM-33" edge="1">
                    <mxGeometry relative="1" as="geometry"/>
                </mxCell>
                <mxCell id="_wPPTLbspj4OPMHZOY2y-10" style="edgeStyle=none;html=1;exitX=1;exitY=0.3333333333333333;exitDx=0;exitDy=0;exitPerimeter=0;entryX=0;entryY=0.5;entryDx=0;entryDy=0;endArrow=none;endFill=0;" parent="n4pDov9S_x4WmA5yypZS-1" source="Rf1EGdy4jamaxvFMJreM-0" target="Rf1EGdy4jamaxvFMJreM-34" edge="1">
                    <mxGeometry relative="1" as="geometry"/>
                </mxCell>
                <mxCell id="_wPPTLbspj4OPMHZOY2y-11" style="edgeStyle=none;html=1;exitX=1;exitY=0.3333333333333333;exitDx=0;exitDy=0;exitPerimeter=0;entryX=0;entryY=0.5;entryDx=0;entryDy=0;endArrow=none;endFill=0;" parent="n4pDov9S_x4WmA5yypZS-1" source="Rf1EGdy4jamaxvFMJreM-0" target="Rf1EGdy4jamaxvFMJreM-35" edge="1">
                    <mxGeometry relative="1" as="geometry"/>
                </mxCell>
                <mxCell id="_wPPTLbspj4OPMHZOY2y-12" style="edgeStyle=none;html=1;exitX=1;exitY=0.3333333333333333;exitDx=0;exitDy=0;exitPerimeter=0;entryX=0;entryY=0.5;entryDx=0;entryDy=0;endArrow=none;endFill=0;" parent="n4pDov9S_x4WmA5yypZS-1" source="Rf1EGdy4jamaxvFMJreM-0" target="Rf1EGdy4jamaxvFMJreM-5" edge="1">
                    <mxGeometry relative="1" as="geometry"/>
                </mxCell>
                <mxCell id="_wPPTLbspj4OPMHZOY2y-13" style="edgeStyle=none;html=1;exitX=1;exitY=0.3333333333333333;exitDx=0;exitDy=0;exitPerimeter=0;entryX=0;entryY=0.5;entryDx=0;entryDy=0;endArrow=none;endFill=0;" parent="n4pDov9S_x4WmA5yypZS-1" source="Rf1EGdy4jamaxvFMJreM-0" target="Rf1EGdy4jamaxvFMJreM-6" edge="1">
                    <mxGeometry relative="1" as="geometry"/>
                </mxCell>
                <mxCell id="_wPPTLbspj4OPMHZOY2y-14" style="edgeStyle=none;html=1;exitX=1;exitY=0.3333333333333333;exitDx=0;exitDy=0;exitPerimeter=0;entryX=0;entryY=0.5;entryDx=0;entryDy=0;endArrow=none;endFill=0;" parent="n4pDov9S_x4WmA5yypZS-1" source="Rf1EGdy4jamaxvFMJreM-0" target="Rf1EGdy4jamaxvFMJreM-7" edge="1">
                    <mxGeometry relative="1" as="geometry"/>
                </mxCell>
                <mxCell id="_wPPTLbspj4OPMHZOY2y-15" style="edgeStyle=none;html=1;exitX=1;exitY=0.3333333333333333;exitDx=0;exitDy=0;exitPerimeter=0;entryX=0;entryY=0.5;entryDx=0;entryDy=0;endArrow=none;endFill=0;" parent="n4pDov9S_x4WmA5yypZS-1" source="Rf1EGdy4jamaxvFMJreM-0" target="Rf1EGdy4jamaxvFMJreM-8" edge="1">
                    <mxGeometry relative="1" as="geometry"/>
                </mxCell>
                <mxCell id="qkpGzd2ZT3xXNZoChOo8-0" value="Gestionar Usuarios" style="ellipse;whiteSpace=wrap;html=1;fontFamily=Helvetica;" parent="n4pDov9S_x4WmA5yypZS-1" vertex="1">
                    <mxGeometry x="364.88" y="722" width="120" height="22" as="geometry"/>
                </mxCell>
                <mxCell id="qkpGzd2ZT3xXNZoChOo8-1" style="edgeStyle=none;html=1;exitX=0.5;exitY=0.5;exitDx=0;exitDy=0;exitPerimeter=0;endArrow=none;endFill=0;entryX=0;entryY=0.5;entryDx=0;entryDy=0;" parent="n4pDov9S_x4WmA5yypZS-1" source="Rf1EGdy4jamaxvFMJreM-1" target="qkpGzd2ZT3xXNZoChOo8-0" edge="1">
                    <mxGeometry relative="1" as="geometry">
                        <mxPoint x="280" y="738" as="targetPoint"/>
                    </mxGeometry>
                </mxCell>
                <mxCell id="v2IIHMZqUC_AM1yU2Q12-2" style="edgeStyle=none;html=1;exitX=0;exitY=0.3333333333333333;exitDx=0;exitDy=0;exitPerimeter=0;entryX=1;entryY=0.5;entryDx=0;entryDy=0;endArrow=none;endFill=0;" parent="n4pDov9S_x4WmA5yypZS-1" source="Rf1EGdy4jamaxvFMJreM-2" target="Rf1EGdy4jamaxvFMJreM-7" edge="1">
                    <mxGeometry relative="1" as="geometry"/>
                </mxCell>
                <mxCell id="v2IIHMZqUC_AM1yU2Q12-1" style="edgeStyle=none;html=1;exitX=0;exitY=0.3333333333333333;exitDx=0;exitDy=0;exitPerimeter=0;entryX=1;entryY=0.5;entryDx=0;entryDy=0;endArrow=none;endFill=0;" parent="n4pDov9S_x4WmA5yypZS-1" source="Rf1EGdy4jamaxvFMJreM-2" target="Rf1EGdy4jamaxvFMJreM-6" edge="1">
                    <mxGeometry relative="1" as="geometry"/>
                </mxCell>
                <mxCell id="v2IIHMZqUC_AM1yU2Q12-0" style="edgeStyle=none;html=1;exitX=0;exitY=0.3333333333333333;exitDx=0;exitDy=0;exitPerimeter=0;entryX=1;entryY=0.5;entryDx=0;entryDy=0;endArrow=none;endFill=0;" parent="n4pDov9S_x4WmA5yypZS-1" source="Rf1EGdy4jamaxvFMJreM-2" target="Rf1EGdy4jamaxvFMJreM-5" edge="1">
                    <mxGeometry relative="1" as="geometry"/>
                </mxCell>
                <mxCell id="LWGz5NaWAiM3EaZdUCio-0" value="Solucionar Incidencia" style="ellipse;whiteSpace=wrap;html=1;" vertex="1" parent="n4pDov9S_x4WmA5yypZS-1">
                    <mxGeometry x="363.26" y="201" width="120" height="20" as="geometry"/>
                </mxCell>
                <mxCell id="LWGz5NaWAiM3EaZdUCio-1" style="edgeStyle=none;html=1;exitX=1;exitY=0.3333333333333333;exitDx=0;exitDy=0;exitPerimeter=0;entryX=0;entryY=0.5;entryDx=0;entryDy=0;endArrow=none;endFill=0;" edge="1" parent="n4pDov9S_x4WmA5yypZS-1" source="Rf1EGdy4jamaxvFMJreM-0" target="LWGz5NaWAiM3EaZdUCio-0">
                    <mxGeometry relative="1" as="geometry"/>
                </mxCell>
            </root>
        </mxGraphModel>
    </diagram>
    <diagram id="kuCDyEq93gworGAd4tVy" name="CU-01">
        <mxGraphModel dx="797" dy="233" grid="1" gridSize="10" guides="1" tooltips="1" connect="1" arrows="1" fold="1" page="1" pageScale="1" pageWidth="827" pageHeight="1169" math="1" shadow="0">
            <root>
                <mxCell id="QR7eqonvH8WB6looBv0Q-0"/>
                <mxCell id="QR7eqonvH8WB6looBv0Q-1" parent="QR7eqonvH8WB6looBv0Q-0"/>
                <mxCell id="c2AX5Nyprbf9rqB4j-Oc-0" value="" style="rounded=0;whiteSpace=wrap;html=1;" parent="QR7eqonvH8WB6looBv0Q-1" vertex="1">
                    <mxGeometry x="302" y="45" width="210" height="385" as="geometry"/>
                </mxCell>
                <mxCell id="c2AX5Nyprbf9rqB4j-Oc-1" style="edgeStyle=none;html=1;exitX=1;exitY=0.3333333333333333;exitDx=0;exitDy=0;exitPerimeter=0;entryX=0;entryY=0.5;entryDx=0;entryDy=0;endArrow=none;endFill=0;" parent="QR7eqonvH8WB6looBv0Q-1" source="c2AX5Nyprbf9rqB4j-Oc-4" target="c2AX5Nyprbf9rqB4j-Oc-8" edge="1">
                    <mxGeometry relative="1" as="geometry"/>
                </mxCell>
                <mxCell id="rVZL_KaMliInN6qfg9hy-0" style="edgeStyle=none;html=1;exitX=1;exitY=0.3333333333333333;exitDx=0;exitDy=0;exitPerimeter=0;entryX=0;entryY=0.5;entryDx=0;entryDy=0;endArrow=none;endFill=0;" parent="QR7eqonvH8WB6looBv0Q-1" source="c2AX5Nyprbf9rqB4j-Oc-4" target="c2AX5Nyprbf9rqB4j-Oc-20" edge="1">
                    <mxGeometry relative="1" as="geometry"/>
                </mxCell>
                <mxCell id="rVZL_KaMliInN6qfg9hy-1" style="edgeStyle=none;html=1;exitX=1;exitY=0.3333333333333333;exitDx=0;exitDy=0;exitPerimeter=0;entryX=0;entryY=0.5;entryDx=0;entryDy=0;endArrow=none;endFill=0;" parent="QR7eqonvH8WB6looBv0Q-1" source="c2AX5Nyprbf9rqB4j-Oc-4" target="c2AX5Nyprbf9rqB4j-Oc-10" edge="1">
                    <mxGeometry relative="1" as="geometry"/>
                </mxCell>
                <mxCell id="rVZL_KaMliInN6qfg9hy-2" style="edgeStyle=none;html=1;exitX=1;exitY=0.3333333333333333;exitDx=0;exitDy=0;exitPerimeter=0;entryX=0;entryY=0.5;entryDx=0;entryDy=0;endArrow=none;endFill=0;" parent="QR7eqonvH8WB6looBv0Q-1" source="c2AX5Nyprbf9rqB4j-Oc-4" target="c2AX5Nyprbf9rqB4j-Oc-18" edge="1">
                    <mxGeometry relative="1" as="geometry"/>
                </mxCell>
                <mxCell id="c2AX5Nyprbf9rqB4j-Oc-4" value="Empleado" style="shape=umlActor;verticalLabelPosition=bottom;verticalAlign=top;html=1;outlineConnect=0;" parent="QR7eqonvH8WB6looBv0Q-1" vertex="1">
                    <mxGeometry x="82" y="160" width="34" height="66" as="geometry"/>
                </mxCell>
                <mxCell id="XP_xzVf8o5HTUZBsewhF-1" style="edgeStyle=none;html=1;exitX=0.5;exitY=0.5;exitDx=0;exitDy=0;exitPerimeter=0;entryX=0;entryY=0.5;entryDx=0;entryDy=0;endArrow=none;endFill=0;" parent="QR7eqonvH8WB6looBv0Q-1" source="c2AX5Nyprbf9rqB4j-Oc-5" target="XP_xzVf8o5HTUZBsewhF-0" edge="1">
                    <mxGeometry relative="1" as="geometry"/>
                </mxCell>
                <mxCell id="c2AX5Nyprbf9rqB4j-Oc-5" value="Administrador&lt;br&gt;" style="shape=umlActor;verticalLabelPosition=bottom;verticalAlign=top;html=1;outlineConnect=0;" parent="QR7eqonvH8WB6looBv0Q-1" vertex="1">
                    <mxGeometry x="89" y="330" width="30" height="60" as="geometry"/>
                </mxCell>
                <mxCell id="nrpiCcPB_PlfYjPUvhwY-1" style="edgeStyle=none;html=1;exitX=0;exitY=0.3333333333333333;exitDx=0;exitDy=0;exitPerimeter=0;entryX=1;entryY=0.5;entryDx=0;entryDy=0;endArrow=none;endFill=0;" parent="QR7eqonvH8WB6looBv0Q-1" source="c2AX5Nyprbf9rqB4j-Oc-7" target="c2AX5Nyprbf9rqB4j-Oc-15" edge="1">
                    <mxGeometry relative="1" as="geometry"/>
                </mxCell>
                <mxCell id="nrpiCcPB_PlfYjPUvhwY-2" style="edgeStyle=none;html=1;exitX=0;exitY=0.3333333333333333;exitDx=0;exitDy=0;exitPerimeter=0;entryX=1;entryY=0.5;entryDx=0;entryDy=0;endArrow=none;endFill=0;" parent="QR7eqonvH8WB6looBv0Q-1" source="c2AX5Nyprbf9rqB4j-Oc-7" target="c2AX5Nyprbf9rqB4j-Oc-18" edge="1">
                    <mxGeometry relative="1" as="geometry"/>
                </mxCell>
                <mxCell id="YPpdAl3YshO5DbAt-xpR-0" style="edgeStyle=none;html=1;exitX=0;exitY=0.3333333333333333;exitDx=0;exitDy=0;exitPerimeter=0;entryX=1;entryY=0.5;entryDx=0;entryDy=0;endArrow=none;endFill=0;" parent="QR7eqonvH8WB6looBv0Q-1" source="c2AX5Nyprbf9rqB4j-Oc-7" target="c2AX5Nyprbf9rqB4j-Oc-11" edge="1">
                    <mxGeometry relative="1" as="geometry"/>
                </mxCell>
                <mxCell id="c2AX5Nyprbf9rqB4j-Oc-7" value="Alumno" style="shape=umlActor;verticalLabelPosition=bottom;verticalAlign=top;html=1;outlineConnect=0;" parent="QR7eqonvH8WB6looBv0Q-1" vertex="1">
                    <mxGeometry x="683" y="123" width="30" height="60" as="geometry"/>
                </mxCell>
                <mxCell id="c2AX5Nyprbf9rqB4j-Oc-8" value="Gestionar Incidencias" style="ellipse;whiteSpace=wrap;html=1;" parent="QR7eqonvH8WB6looBv0Q-1" vertex="1">
                    <mxGeometry x="348.88" y="91" width="120" height="20" as="geometry"/>
                </mxCell>
                <mxCell id="c2AX5Nyprbf9rqB4j-Oc-10" value="Gestionar&amp;nbsp;Reportes" style="ellipse;whiteSpace=wrap;html=1;" parent="QR7eqonvH8WB6looBv0Q-1" vertex="1">
                    <mxGeometry x="346" y="132" width="120" height="20" as="geometry"/>
                </mxCell>
                <mxCell id="c2AX5Nyprbf9rqB4j-Oc-11" value="Procesar Reportes" style="ellipse;whiteSpace=wrap;html=1;" parent="QR7eqonvH8WB6looBv0Q-1" vertex="1">
                    <mxGeometry x="346.88" y="169" width="120" height="23" as="geometry"/>
                </mxCell>
                <mxCell id="c2AX5Nyprbf9rqB4j-Oc-15" value="Gestionar Servicios" style="ellipse;whiteSpace=wrap;html=1;" parent="QR7eqonvH8WB6looBv0Q-1" vertex="1">
                    <mxGeometry x="346.75" y="216" width="124.25" height="20" as="geometry"/>
                </mxCell>
                <mxCell id="c2AX5Nyprbf9rqB4j-Oc-18" value="Gestionar Activos" style="ellipse;whiteSpace=wrap;html=1;" parent="QR7eqonvH8WB6looBv0Q-1" vertex="1">
                    <mxGeometry x="347.25" y="259" width="120" height="20" as="geometry"/>
                </mxCell>
                <mxCell id="c2AX5Nyprbf9rqB4j-Oc-20" value="Gestionar Personas" style="ellipse;whiteSpace=wrap;html=1;" parent="QR7eqonvH8WB6looBv0Q-1" vertex="1">
                    <mxGeometry x="346.88" y="304" width="120" height="20" as="geometry"/>
                </mxCell>
                <mxCell id="c2AX5Nyprbf9rqB4j-Oc-21" value="Gestionar Seguridad" style="ellipse;whiteSpace=wrap;html=1;fontFamily=Helvetica;" parent="QR7eqonvH8WB6looBv0Q-1" vertex="1">
                    <mxGeometry x="346" y="349" width="120" height="22" as="geometry"/>
                </mxCell>
                <mxCell id="c2AX5Nyprbf9rqB4j-Oc-22" value="HDWeTIL" style="text;html=1;strokeColor=none;fillColor=none;align=center;verticalAlign=middle;whiteSpace=wrap;rounded=0;" parent="QR7eqonvH8WB6looBv0Q-1" vertex="1">
                    <mxGeometry x="377.25" y="49" width="60" height="30" as="geometry"/>
                </mxCell>
                <mxCell id="c2AX5Nyprbf9rqB4j-Oc-23" style="edgeStyle=none;html=1;endArrow=none;endFill=0;exitX=0.5;exitY=0.5;exitDx=0;exitDy=0;exitPerimeter=0;entryX=0;entryY=0.5;entryDx=0;entryDy=0;" parent="QR7eqonvH8WB6looBv0Q-1" source="c2AX5Nyprbf9rqB4j-Oc-5" target="c2AX5Nyprbf9rqB4j-Oc-21" edge="1">
                    <mxGeometry relative="1" as="geometry">
                        <mxPoint x="120" y="347.100386100386" as="sourcePoint"/>
                        <mxPoint x="250" y="383" as="targetPoint"/>
                    </mxGeometry>
                </mxCell>
                <mxCell id="c2AX5Nyprbf9rqB4j-Oc-24" style="edgeStyle=none;html=1;entryX=1;entryY=0.5;entryDx=0;entryDy=0;endArrow=none;endFill=0;exitX=0;exitY=0.3333333333333333;exitDx=0;exitDy=0;exitPerimeter=0;" parent="QR7eqonvH8WB6looBv0Q-1" source="c2AX5Nyprbf9rqB4j-Oc-7" target="c2AX5Nyprbf9rqB4j-Oc-8" edge="1">
                    <mxGeometry relative="1" as="geometry">
                        <mxPoint x="485.75" y="144" as="targetPoint"/>
                    </mxGeometry>
                </mxCell>
                <mxCell id="c2AX5Nyprbf9rqB4j-Oc-25" style="edgeStyle=none;html=1;endArrow=none;endFill=0;entryX=1;entryY=0.5;entryDx=0;entryDy=0;exitX=0;exitY=0.3333333333333333;exitDx=0;exitDy=0;exitPerimeter=0;" parent="QR7eqonvH8WB6looBv0Q-1" source="c2AX5Nyprbf9rqB4j-Oc-7" target="c2AX5Nyprbf9rqB4j-Oc-10" edge="1">
                    <mxGeometry relative="1" as="geometry">
                        <mxPoint x="660" y="220" as="sourcePoint"/>
                        <mxPoint x="590" y="260" as="targetPoint"/>
                    </mxGeometry>
                </mxCell>
                <mxCell id="c2AX5Nyprbf9rqB4j-Oc-26" style="edgeStyle=none;html=1;exitX=1;exitY=0.3333333333333333;exitDx=0;exitDy=0;exitPerimeter=0;entryX=0;entryY=0.5;entryDx=0;entryDy=0;endArrow=none;endFill=0;" parent="QR7eqonvH8WB6looBv0Q-1" source="c2AX5Nyprbf9rqB4j-Oc-4" target="c2AX5Nyprbf9rqB4j-Oc-15" edge="1">
                    <mxGeometry relative="1" as="geometry"/>
                </mxCell>
                <mxCell id="c2AX5Nyprbf9rqB4j-Oc-28" style="edgeStyle=none;html=1;exitX=1;exitY=0.3333333333333333;exitDx=0;exitDy=0;exitPerimeter=0;endArrow=none;endFill=0;entryX=0;entryY=0.5;entryDx=0;entryDy=0;" parent="QR7eqonvH8WB6looBv0Q-1" source="c2AX5Nyprbf9rqB4j-Oc-4" target="c2AX5Nyprbf9rqB4j-Oc-11" edge="1">
                    <mxGeometry relative="1" as="geometry">
                        <mxPoint x="220" y="401.8571428571429" as="targetPoint"/>
                    </mxGeometry>
                </mxCell>
                <mxCell id="nrpiCcPB_PlfYjPUvhwY-0" style="edgeStyle=none;html=1;exitX=0.25;exitY=0.1;exitDx=0;exitDy=0;exitPerimeter=0;entryX=0.5;entryY=0;entryDx=0;entryDy=0;entryPerimeter=0;endArrow=none;endFill=0;" parent="QR7eqonvH8WB6looBv0Q-1" source="c2AX5Nyprbf9rqB4j-Oc-7" target="c2AX5Nyprbf9rqB4j-Oc-7" edge="1">
                    <mxGeometry relative="1" as="geometry"/>
                </mxCell>
                <mxCell id="XP_xzVf8o5HTUZBsewhF-0" value="Gestionar Usuarios" style="ellipse;whiteSpace=wrap;html=1;fontFamily=Helvetica;" parent="QR7eqonvH8WB6looBv0Q-1" vertex="1">
                    <mxGeometry x="345" y="390" width="124" height="22" as="geometry"/>
                </mxCell>
            </root>
        </mxGraphModel>
    </diagram>
    <diagram id="ojOb8KC4r1av8iQ0hKYJ" name="CU-02">
        <mxGraphModel dx="797" dy="233" grid="1" gridSize="10" guides="1" tooltips="1" connect="1" arrows="1" fold="1" page="1" pageScale="1" pageWidth="827" pageHeight="1169" math="0" shadow="0">
            <root>
                <mxCell id="rX5Da6WxDRviNr5QGVR0-0"/>
                <mxCell id="rX5Da6WxDRviNr5QGVR0-1" parent="rX5Da6WxDRviNr5QGVR0-0"/>
                <mxCell id="rX5Da6WxDRviNr5QGVR0-89" value="" style="rounded=0;whiteSpace=wrap;html=1;" parent="rX5Da6WxDRviNr5QGVR0-1" vertex="1">
                    <mxGeometry x="321" y="526" width="150" height="86" as="geometry"/>
                </mxCell>
                <mxCell id="rX5Da6WxDRviNr5QGVR0-88" value="" style="rounded=0;whiteSpace=wrap;html=1;" parent="rX5Da6WxDRviNr5QGVR0-1" vertex="1">
                    <mxGeometry x="320.88" y="441" width="150" height="75" as="geometry"/>
                </mxCell>
                <mxCell id="rX5Da6WxDRviNr5QGVR0-87" value="" style="rounded=0;whiteSpace=wrap;html=1;" parent="rX5Da6WxDRviNr5QGVR0-1" vertex="1">
                    <mxGeometry x="321" y="364" width="150" height="68" as="geometry"/>
                </mxCell>
                <mxCell id="rX5Da6WxDRviNr5QGVR0-86" value="" style="rounded=0;whiteSpace=wrap;html=1;" parent="rX5Da6WxDRviNr5QGVR0-1" vertex="1">
                    <mxGeometry x="321" y="280" width="150" height="75" as="geometry"/>
                </mxCell>
                <mxCell id="rX5Da6WxDRviNr5QGVR0-85" value="" style="rounded=0;whiteSpace=wrap;html=1;" parent="rX5Da6WxDRviNr5QGVR0-1" vertex="1">
                    <mxGeometry x="321" y="169" width="150" height="102" as="geometry"/>
                </mxCell>
                <mxCell id="rX5Da6WxDRviNr5QGVR0-43" value="" style="rounded=0;whiteSpace=wrap;html=1;" parent="rX5Da6WxDRviNr5QGVR0-1" vertex="1">
                    <mxGeometry x="321" y="85" width="150" height="75" as="geometry"/>
                </mxCell>
                <mxCell id="rX5Da6WxDRviNr5QGVR0-3" style="edgeStyle=none;html=1;exitX=1;exitY=0.3333333333333333;exitDx=0;exitDy=0;exitPerimeter=0;entryX=0;entryY=0.5;entryDx=0;entryDy=0;endArrow=none;endFill=0;" parent="rX5Da6WxDRviNr5QGVR0-1" source="rX5Da6WxDRviNr5QGVR0-6" target="rX5Da6WxDRviNr5QGVR0-10" edge="1">
                    <mxGeometry relative="1" as="geometry"/>
                </mxCell>
                <mxCell id="rX5Da6WxDRviNr5QGVR0-4" style="edgeStyle=none;html=1;exitX=1;exitY=0.3333333333333333;exitDx=0;exitDy=0;exitPerimeter=0;entryX=0;entryY=0.5;entryDx=0;entryDy=0;endArrow=none;endFill=0;" parent="rX5Da6WxDRviNr5QGVR0-1" source="rX5Da6WxDRviNr5QGVR0-6" target="rX5Da6WxDRviNr5QGVR0-11" edge="1">
                    <mxGeometry relative="1" as="geometry"/>
                </mxCell>
                <mxCell id="rX5Da6WxDRviNr5QGVR0-5" style="edgeStyle=none;html=1;exitX=1;exitY=0.3333333333333333;exitDx=0;exitDy=0;exitPerimeter=0;entryX=0;entryY=0.5;entryDx=0;entryDy=0;endArrow=none;endFill=0;" parent="rX5Da6WxDRviNr5QGVR0-1" source="rX5Da6WxDRviNr5QGVR0-6" target="rX5Da6WxDRviNr5QGVR0-42" edge="1">
                    <mxGeometry relative="1" as="geometry"/>
                </mxCell>
                <mxCell id="rX5Da6WxDRviNr5QGVR0-6" value="Empleado" style="shape=umlActor;verticalLabelPosition=bottom;verticalAlign=top;html=1;outlineConnect=0;" parent="rX5Da6WxDRviNr5QGVR0-1" vertex="1">
                    <mxGeometry x="82" y="265" width="34" height="66" as="geometry"/>
                </mxCell>
                <mxCell id="j4CyI0HMI9CdQ-xqxtbb-1" style="edgeStyle=none;html=1;exitX=0.5;exitY=0.5;exitDx=0;exitDy=0;exitPerimeter=0;entryX=0;entryY=0.5;entryDx=0;entryDy=0;endArrow=none;endFill=0;" parent="rX5Da6WxDRviNr5QGVR0-1" source="rX5Da6WxDRviNr5QGVR0-7" target="j4CyI0HMI9CdQ-xqxtbb-0" edge="1">
                    <mxGeometry relative="1" as="geometry"/>
                </mxCell>
                <mxCell id="rX5Da6WxDRviNr5QGVR0-7" value="Administrador&lt;br&gt;" style="shape=umlActor;verticalLabelPosition=bottom;verticalAlign=top;html=1;outlineConnect=0;" parent="rX5Da6WxDRviNr5QGVR0-1" vertex="1">
                    <mxGeometry x="89" y="532" width="30" height="60" as="geometry"/>
                </mxCell>
                <mxCell id="rX5Da6WxDRviNr5QGVR0-8" style="edgeStyle=none;html=1;exitX=0;exitY=0.3333333333333333;exitDx=0;exitDy=0;exitPerimeter=0;entryX=1;entryY=0.5;entryDx=0;entryDy=0;endArrow=none;endFill=0;" parent="rX5Da6WxDRviNr5QGVR0-1" source="rX5Da6WxDRviNr5QGVR0-9" target="rX5Da6WxDRviNr5QGVR0-42" edge="1">
                    <mxGeometry relative="1" as="geometry">
                        <mxPoint x="644" y="220" as="sourcePoint"/>
                    </mxGeometry>
                </mxCell>
                <mxCell id="1J9eZRtSffGa8RDMzKzh-0" style="edgeStyle=none;html=1;exitX=0;exitY=0.3333333333333333;exitDx=0;exitDy=0;exitPerimeter=0;entryX=1;entryY=0.5;entryDx=0;entryDy=0;endArrow=none;endFill=0;" parent="rX5Da6WxDRviNr5QGVR0-1" source="rX5Da6WxDRviNr5QGVR0-9" target="rX5Da6WxDRviNr5QGVR0-13" edge="1">
                    <mxGeometry relative="1" as="geometry"/>
                </mxCell>
                <mxCell id="rX5Da6WxDRviNr5QGVR0-9" value="Alumno" style="shape=umlActor;verticalLabelPosition=bottom;verticalAlign=top;html=1;outlineConnect=0;" parent="rX5Da6WxDRviNr5QGVR0-1" vertex="1">
                    <mxGeometry x="653" y="225" width="30" height="60" as="geometry"/>
                </mxCell>
                <mxCell id="rX5Da6WxDRviNr5QGVR0-10" value="ABM Incidencia" style="ellipse;whiteSpace=wrap;html=1;" parent="rX5Da6WxDRviNr5QGVR0-1" vertex="1">
                    <mxGeometry x="336.75" y="105" width="120" height="20" as="geometry"/>
                </mxCell>
                <mxCell id="rX5Da6WxDRviNr5QGVR0-11" value="Listar Incidencias" style="ellipse;whiteSpace=wrap;html=1;" parent="rX5Da6WxDRviNr5QGVR0-1" vertex="1">
                    <mxGeometry x="336.75" y="129" width="120" height="20" as="geometry"/>
                </mxCell>
                <mxCell id="rX5Da6WxDRviNr5QGVR0-12" value="ABM Reporte" style="ellipse;whiteSpace=wrap;html=1;" parent="rX5Da6WxDRviNr5QGVR0-1" vertex="1">
                    <mxGeometry x="336.75" y="190" width="120" height="20" as="geometry"/>
                </mxCell>
                <mxCell id="rX5Da6WxDRviNr5QGVR0-13" value="Procesar Reportes" style="ellipse;whiteSpace=wrap;html=1;" parent="rX5Da6WxDRviNr5QGVR0-1" vertex="1">
                    <mxGeometry x="336.88" y="215" width="120" height="23" as="geometry"/>
                </mxCell>
                <mxCell id="rX5Da6WxDRviNr5QGVR0-15" style="edgeStyle=none;html=1;exitX=1;exitY=0.5;exitDx=0;exitDy=0;endArrow=none;endFill=0;entryX=0;entryY=0.3333333333333333;entryDx=0;entryDy=0;entryPerimeter=0;" parent="rX5Da6WxDRviNr5QGVR0-1" source="rX5Da6WxDRviNr5QGVR0-16" target="rX5Da6WxDRviNr5QGVR0-9" edge="1">
                    <mxGeometry relative="1" as="geometry">
                        <mxPoint x="644" y="245" as="targetPoint"/>
                    </mxGeometry>
                </mxCell>
                <mxCell id="rX5Da6WxDRviNr5QGVR0-16" value="Listar Servicios" style="ellipse;whiteSpace=wrap;html=1;" parent="rX5Da6WxDRviNr5QGVR0-1" vertex="1">
                    <mxGeometry x="336.63" y="326" width="123.25" height="23" as="geometry"/>
                </mxCell>
                <mxCell id="rX5Da6WxDRviNr5QGVR0-17" value="ABM Servicio" style="ellipse;whiteSpace=wrap;html=1;" parent="rX5Da6WxDRviNr5QGVR0-1" vertex="1">
                    <mxGeometry x="335.75" y="302" width="124.25" height="20" as="geometry"/>
                </mxCell>
                <mxCell id="rX5Da6WxDRviNr5QGVR0-18" style="edgeStyle=none;html=1;exitX=1;exitY=0.5;exitDx=0;exitDy=0;entryX=0;entryY=0.3333333333333333;entryDx=0;entryDy=0;entryPerimeter=0;endArrow=none;endFill=0;" parent="rX5Da6WxDRviNr5QGVR0-1" source="rX5Da6WxDRviNr5QGVR0-19" target="rX5Da6WxDRviNr5QGVR0-9" edge="1">
                    <mxGeometry relative="1" as="geometry">
                        <mxPoint x="644" y="220" as="targetPoint"/>
                    </mxGeometry>
                </mxCell>
                <mxCell id="rX5Da6WxDRviNr5QGVR0-19" value="Listar Activos" style="ellipse;whiteSpace=wrap;html=1;" parent="rX5Da6WxDRviNr5QGVR0-1" vertex="1">
                    <mxGeometry x="338.25" y="407.5" width="120" height="21" as="geometry"/>
                </mxCell>
                <mxCell id="rX5Da6WxDRviNr5QGVR0-20" value="ABM Activo" style="ellipse;whiteSpace=wrap;html=1;" parent="rX5Da6WxDRviNr5QGVR0-1" vertex="1">
                    <mxGeometry x="336.25" y="383" width="120" height="20" as="geometry"/>
                </mxCell>
                <mxCell id="rX5Da6WxDRviNr5QGVR0-21" value="Listar Personas" style="ellipse;whiteSpace=wrap;html=1;" parent="rX5Da6WxDRviNr5QGVR0-1" vertex="1">
                    <mxGeometry x="336.5" y="486" width="119" height="22" as="geometry"/>
                </mxCell>
                <mxCell id="rX5Da6WxDRviNr5QGVR0-22" value="ABM Persona" style="ellipse;whiteSpace=wrap;html=1;" parent="rX5Da6WxDRviNr5QGVR0-1" vertex="1">
                    <mxGeometry x="335.88" y="461" width="120" height="20" as="geometry"/>
                </mxCell>
                <mxCell id="rX5Da6WxDRviNr5QGVR0-23" value="Gestionar Seguridad" style="ellipse;whiteSpace=wrap;html=1;fontFamily=Helvetica;" parent="rX5Da6WxDRviNr5QGVR0-1" vertex="1">
                    <mxGeometry x="337" y="551" width="120" height="22" as="geometry"/>
                </mxCell>
                <mxCell id="rX5Da6WxDRviNr5QGVR0-24" value="HDWeTIL" style="text;html=1;strokeColor=none;fillColor=none;align=center;verticalAlign=middle;whiteSpace=wrap;rounded=0;" parent="rX5Da6WxDRviNr5QGVR0-1" vertex="1">
                    <mxGeometry x="367.25" y="54" width="60" height="30" as="geometry"/>
                </mxCell>
                <mxCell id="rX5Da6WxDRviNr5QGVR0-25" style="edgeStyle=none;html=1;endArrow=none;endFill=0;exitX=0.5;exitY=0.5;exitDx=0;exitDy=0;exitPerimeter=0;entryX=0;entryY=0.5;entryDx=0;entryDy=0;" parent="rX5Da6WxDRviNr5QGVR0-1" source="rX5Da6WxDRviNr5QGVR0-7" target="rX5Da6WxDRviNr5QGVR0-23" edge="1">
                    <mxGeometry relative="1" as="geometry">
                        <mxPoint x="120" y="549.100386100386" as="sourcePoint"/>
                        <mxPoint x="250" y="585" as="targetPoint"/>
                    </mxGeometry>
                </mxCell>
                <mxCell id="rX5Da6WxDRviNr5QGVR0-26" style="edgeStyle=none;html=1;entryX=1;entryY=0.5;entryDx=0;entryDy=0;endArrow=none;endFill=0;exitX=0;exitY=0.3333333333333333;exitDx=0;exitDy=0;exitPerimeter=0;" parent="rX5Da6WxDRviNr5QGVR0-1" source="rX5Da6WxDRviNr5QGVR0-9" target="rX5Da6WxDRviNr5QGVR0-11" edge="1">
                    <mxGeometry relative="1" as="geometry">
                        <mxPoint x="644" y="215" as="sourcePoint"/>
                    </mxGeometry>
                </mxCell>
                <mxCell id="rX5Da6WxDRviNr5QGVR0-27" style="edgeStyle=none;html=1;endArrow=none;endFill=0;entryX=1;entryY=0.5;entryDx=0;entryDy=0;exitX=0;exitY=0.3333333333333333;exitDx=0;exitDy=0;exitPerimeter=0;" parent="rX5Da6WxDRviNr5QGVR0-1" source="rX5Da6WxDRviNr5QGVR0-9" target="rX5Da6WxDRviNr5QGVR0-12" edge="1">
                    <mxGeometry relative="1" as="geometry">
                        <mxPoint x="659" y="220" as="sourcePoint"/>
                        <mxPoint x="589" y="260" as="targetPoint"/>
                    </mxGeometry>
                </mxCell>
                <mxCell id="rX5Da6WxDRviNr5QGVR0-28" style="edgeStyle=none;html=1;exitX=1;exitY=0.3333333333333333;exitDx=0;exitDy=0;exitPerimeter=0;entryX=0;entryY=0.5;entryDx=0;entryDy=0;endArrow=none;endFill=0;" parent="rX5Da6WxDRviNr5QGVR0-1" target="rX5Da6WxDRviNr5QGVR0-17" edge="1">
                    <mxGeometry relative="1" as="geometry">
                        <mxPoint x="115.99999999999989" y="287" as="sourcePoint"/>
                    </mxGeometry>
                </mxCell>
                <mxCell id="rX5Da6WxDRviNr5QGVR0-29" style="edgeStyle=none;html=1;exitX=1;exitY=0.3333333333333333;exitDx=0;exitDy=0;exitPerimeter=0;entryX=0;entryY=0.5;entryDx=0;entryDy=0;endArrow=none;endFill=0;" parent="rX5Da6WxDRviNr5QGVR0-1" target="rX5Da6WxDRviNr5QGVR0-19" edge="1">
                    <mxGeometry relative="1" as="geometry">
                        <mxPoint x="115.99999999999989" y="287" as="sourcePoint"/>
                    </mxGeometry>
                </mxCell>
                <mxCell id="rX5Da6WxDRviNr5QGVR0-30" style="edgeStyle=none;html=1;exitX=1;exitY=0.3333333333333333;exitDx=0;exitDy=0;exitPerimeter=0;endArrow=none;endFill=0;entryX=0;entryY=0.5;entryDx=0;entryDy=0;" parent="rX5Da6WxDRviNr5QGVR0-1" source="rX5Da6WxDRviNr5QGVR0-6" target="rX5Da6WxDRviNr5QGVR0-13" edge="1">
                    <mxGeometry relative="1" as="geometry">
                        <mxPoint x="220" y="452.8571428571429" as="targetPoint"/>
                    </mxGeometry>
                </mxCell>
                <mxCell id="rX5Da6WxDRviNr5QGVR0-32" style="edgeStyle=none;html=1;exitX=1;exitY=0.3333333333333333;exitDx=0;exitDy=0;exitPerimeter=0;entryX=0;entryY=0.5;entryDx=0;entryDy=0;endArrow=none;endFill=0;" parent="rX5Da6WxDRviNr5QGVR0-1" target="rX5Da6WxDRviNr5QGVR0-20" edge="1">
                    <mxGeometry relative="1" as="geometry">
                        <mxPoint x="115.99999999999989" y="287" as="sourcePoint"/>
                    </mxGeometry>
                </mxCell>
                <mxCell id="rX5Da6WxDRviNr5QGVR0-33" style="edgeStyle=none;html=1;exitX=1;exitY=0.3333333333333333;exitDx=0;exitDy=0;exitPerimeter=0;entryX=0;entryY=0.5;entryDx=0;entryDy=0;endArrow=none;endFill=0;" parent="rX5Da6WxDRviNr5QGVR0-1" target="rX5Da6WxDRviNr5QGVR0-16" edge="1">
                    <mxGeometry relative="1" as="geometry">
                        <mxPoint x="115.99999999999989" y="287" as="sourcePoint"/>
                    </mxGeometry>
                </mxCell>
                <mxCell id="rX5Da6WxDRviNr5QGVR0-34" style="edgeStyle=none;html=1;exitX=1;exitY=0.3333333333333333;exitDx=0;exitDy=0;exitPerimeter=0;entryX=0;entryY=0.5;entryDx=0;entryDy=0;endArrow=none;endFill=0;" parent="rX5Da6WxDRviNr5QGVR0-1" target="rX5Da6WxDRviNr5QGVR0-21" edge="1">
                    <mxGeometry relative="1" as="geometry">
                        <mxPoint x="115.99999999999989" y="287" as="sourcePoint"/>
                    </mxGeometry>
                </mxCell>
                <mxCell id="rX5Da6WxDRviNr5QGVR0-35" style="edgeStyle=none;html=1;exitX=1;exitY=0.3333333333333333;exitDx=0;exitDy=0;exitPerimeter=0;entryX=0;entryY=0.5;entryDx=0;entryDy=0;endArrow=none;endFill=0;" parent="rX5Da6WxDRviNr5QGVR0-1" target="rX5Da6WxDRviNr5QGVR0-22" edge="1">
                    <mxGeometry relative="1" as="geometry">
                        <mxPoint x="115.99999999999989" y="287" as="sourcePoint"/>
                    </mxGeometry>
                </mxCell>
                <mxCell id="rX5Da6WxDRviNr5QGVR0-36" value="Módulo Incidencias" style="text;html=1;strokeColor=none;fillColor=none;align=center;verticalAlign=middle;whiteSpace=wrap;rounded=0;strokeWidth=1;arcSize=12;fontSize=10;" parent="rX5Da6WxDRviNr5QGVR0-1" vertex="1">
                    <mxGeometry x="340.25" y="78" width="116" height="30" as="geometry"/>
                </mxCell>
                <mxCell id="rX5Da6WxDRviNr5QGVR0-37" value="Módulo Reportes" style="text;html=1;strokeColor=none;fillColor=none;align=center;verticalAlign=middle;whiteSpace=wrap;rounded=0;fontSize=10;" parent="rX5Da6WxDRviNr5QGVR0-1" vertex="1">
                    <mxGeometry x="330.13" y="161" width="131.5" height="30" as="geometry"/>
                </mxCell>
                <mxCell id="rX5Da6WxDRviNr5QGVR0-38" value="Módulo Servicios" style="text;html=1;strokeColor=none;fillColor=none;align=center;verticalAlign=middle;whiteSpace=wrap;rounded=0;fontSize=10;" parent="rX5Da6WxDRviNr5QGVR0-1" vertex="1">
                    <mxGeometry x="341" y="274" width="116" height="30" as="geometry"/>
                </mxCell>
                <mxCell id="rX5Da6WxDRviNr5QGVR0-39" value="Módulo&amp;nbsp; Activos" style="text;html=1;strokeColor=none;fillColor=none;align=center;verticalAlign=middle;whiteSpace=wrap;rounded=0;fontSize=10;" parent="rX5Da6WxDRviNr5QGVR0-1" vertex="1">
                    <mxGeometry x="338" y="357" width="116" height="30" as="geometry"/>
                </mxCell>
                <mxCell id="rX5Da6WxDRviNr5QGVR0-40" value="Módulo&amp;nbsp; Persoans" style="text;html=1;strokeColor=none;fillColor=none;align=center;verticalAlign=middle;whiteSpace=wrap;rounded=0;fontSize=10;" parent="rX5Da6WxDRviNr5QGVR0-1" vertex="1">
                    <mxGeometry x="337" y="434" width="116" height="30" as="geometry"/>
                </mxCell>
                <mxCell id="rX5Da6WxDRviNr5QGVR0-41" value="Módulo&amp;nbsp; Configuraciones" style="text;html=1;strokeColor=none;fillColor=none;align=center;verticalAlign=middle;whiteSpace=wrap;rounded=0;fontSize=10;" parent="rX5Da6WxDRviNr5QGVR0-1" vertex="1">
                    <mxGeometry x="331" y="522" width="138" height="30" as="geometry"/>
                </mxCell>
                <mxCell id="rX5Da6WxDRviNr5QGVR0-42" value="Listar Reportes" style="ellipse;whiteSpace=wrap;html=1;" parent="rX5Da6WxDRviNr5QGVR0-1" vertex="1">
                    <mxGeometry x="336" y="243" width="120" height="20" as="geometry"/>
                </mxCell>
                <mxCell id="j4CyI0HMI9CdQ-xqxtbb-0" value="Gestionar Usuarios" style="ellipse;whiteSpace=wrap;html=1;fontFamily=Helvetica;" parent="rX5Da6WxDRviNr5QGVR0-1" vertex="1">
                    <mxGeometry x="337" y="578" width="120" height="22" as="geometry"/>
                </mxCell>
            </root>
        </mxGraphModel>
    </diagram>
    <diagram name="CU-03" id="j2-vb1LtN-NMAvoCToch">
        <mxGraphModel dx="776" dy="507" grid="1" gridSize="10" guides="1" tooltips="1" connect="1" arrows="1" fold="1" page="1" pageScale="1" pageWidth="827" pageHeight="1169" math="0" shadow="0">
            <root>
                <mxCell id="0"/>
                <mxCell id="1" parent="0"/>
                <mxCell id="JXxUybG7xx0Jgjpn0fgO-487" value="" style="rounded=0;whiteSpace=wrap;html=1;" parent="1" vertex="1">
                    <mxGeometry x="320" y="7" width="210" height="563" as="geometry"/>
                </mxCell>
                <mxCell id="0AXbkvNRNFsjLBhcbYe6-487" style="edgeStyle=none;html=1;exitX=1;exitY=0.3333333333333333;exitDx=0;exitDy=0;exitPerimeter=0;entryX=0;entryY=0.5;entryDx=0;entryDy=0;endArrow=none;endFill=0;" parent="1" source="79" target="jynlLXAI10efE11RgELN-642" edge="1">
                    <mxGeometry relative="1" as="geometry"/>
                </mxCell>
                <mxCell id="0AXbkvNRNFsjLBhcbYe6-488" style="edgeStyle=none;html=1;exitX=1;exitY=0.3333333333333333;exitDx=0;exitDy=0;exitPerimeter=0;entryX=0;entryY=0.5;entryDx=0;entryDy=0;endArrow=none;endFill=0;" parent="1" source="79" target="8" edge="1">
                    <mxGeometry relative="1" as="geometry"/>
                </mxCell>
                <mxCell id="Wuby_5JHWar8-xQkr0wM-487" style="edgeStyle=none;html=1;exitX=1;exitY=0.3333333333333333;exitDx=0;exitDy=0;exitPerimeter=0;entryX=0;entryY=0.5;entryDx=0;entryDy=0;endArrow=none;endFill=0;" parent="1" source="79" target="l-4Qs5OfCV0jRhOPei8S-487" edge="1">
                    <mxGeometry relative="1" as="geometry"/>
                </mxCell>
                <mxCell id="79" value="Empleado" style="shape=umlActor;verticalLabelPosition=bottom;verticalAlign=top;html=1;outlineConnect=0;" parent="1" vertex="1">
                    <mxGeometry x="82" y="289" width="34" height="66" as="geometry"/>
                </mxCell>
                <mxCell id="PgRTaCavA2zI-Szis4YL-488" style="edgeStyle=none;html=1;exitX=0.5;exitY=0.5;exitDx=0;exitDy=0;exitPerimeter=0;entryX=0;entryY=0.5;entryDx=0;entryDy=0;endArrow=none;endFill=0;" parent="1" source="487" target="PgRTaCavA2zI-Szis4YL-487" edge="1">
                    <mxGeometry relative="1" as="geometry"/>
                </mxCell>
                <mxCell id="487" value="Administrador&lt;br&gt;" style="shape=umlActor;verticalLabelPosition=bottom;verticalAlign=top;html=1;outlineConnect=0;" parent="1" vertex="1">
                    <mxGeometry x="89" y="487" width="30" height="60" as="geometry"/>
                </mxCell>
                <mxCell id="l-4Qs5OfCV0jRhOPei8S-489" style="edgeStyle=none;html=1;exitX=0;exitY=0.3333333333333333;exitDx=0;exitDy=0;exitPerimeter=0;entryX=1;entryY=0.5;entryDx=0;entryDy=0;endArrow=none;endFill=0;" parent="1" source="jynlLXAI10efE11RgELN-636" target="l-4Qs5OfCV0jRhOPei8S-487" edge="1">
                    <mxGeometry relative="1" as="geometry"/>
                </mxCell>
                <mxCell id="jynlLXAI10efE11RgELN-636" value="Alumno" style="shape=umlActor;verticalLabelPosition=bottom;verticalAlign=top;html=1;outlineConnect=0;" parent="1" vertex="1">
                    <mxGeometry x="645" y="155" width="30" height="60" as="geometry"/>
                </mxCell>
                <mxCell id="jynlLXAI10efE11RgELN-642" value="ABM Incidencia" style="ellipse;whiteSpace=wrap;html=1;" parent="1" vertex="1">
                    <mxGeometry x="365.75" y="65" width="120" height="20" as="geometry"/>
                </mxCell>
                <mxCell id="8" value="Listar Incidencias" style="ellipse;whiteSpace=wrap;html=1;" parent="1" vertex="1">
                    <mxGeometry x="365.75" y="89" width="120" height="20" as="geometry"/>
                </mxCell>
                <mxCell id="373" value="ABM Reporte" style="ellipse;whiteSpace=wrap;html=1;" parent="1" vertex="1">
                    <mxGeometry x="365.75" y="147" width="120" height="20" as="geometry"/>
                </mxCell>
                <mxCell id="9X5Q-gC0KVqI6JgkziIJ-487" style="edgeStyle=none;html=1;exitX=1;exitY=0.5;exitDx=0;exitDy=0;entryX=0;entryY=0.3333333333333333;entryDx=0;entryDy=0;entryPerimeter=0;endArrow=none;endFill=0;" parent="1" source="359" target="jynlLXAI10efE11RgELN-636" edge="1">
                    <mxGeometry relative="1" as="geometry"/>
                </mxCell>
                <mxCell id="359" value="Procesar Reportes" style="ellipse;whiteSpace=wrap;html=1;" parent="1" vertex="1">
                    <mxGeometry x="364.88" y="173" width="120" height="23" as="geometry"/>
                </mxCell>
                <mxCell id="0AXbkvNRNFsjLBhcbYe6-489" style="edgeStyle=none;html=1;exitX=1;exitY=0.5;exitDx=0;exitDy=0;entryX=0;entryY=0.3333333333333333;entryDx=0;entryDy=0;entryPerimeter=0;endArrow=none;endFill=0;" parent="1" source="jynlLXAI10efE11RgELN-664" target="jynlLXAI10efE11RgELN-636" edge="1">
                    <mxGeometry relative="1" as="geometry"/>
                </mxCell>
                <mxCell id="jynlLXAI10efE11RgELN-664" value="Listar Servicios" style="ellipse;whiteSpace=wrap;html=1;" parent="1" vertex="1">
                    <mxGeometry x="365.63" y="277" width="123.25" height="23" as="geometry"/>
                </mxCell>
                <mxCell id="jynlLXAI10efE11RgELN-665" value="ABM Servicio" style="ellipse;whiteSpace=wrap;html=1;" parent="1" vertex="1">
                    <mxGeometry x="364.75" y="253" width="124.25" height="20" as="geometry"/>
                </mxCell>
                <mxCell id="0AXbkvNRNFsjLBhcbYe6-490" style="edgeStyle=none;html=1;exitX=1;exitY=0.5;exitDx=0;exitDy=0;entryX=0;entryY=0.3333333333333333;entryDx=0;entryDy=0;entryPerimeter=0;endArrow=none;endFill=0;" parent="1" source="jynlLXAI10efE11RgELN-670" target="jynlLXAI10efE11RgELN-636" edge="1">
                    <mxGeometry relative="1" as="geometry"/>
                </mxCell>
                <mxCell id="jynlLXAI10efE11RgELN-670" value="Listar Activos" style="ellipse;whiteSpace=wrap;html=1;" parent="1" vertex="1">
                    <mxGeometry x="367.25" y="356.5" width="120" height="21" as="geometry"/>
                </mxCell>
                <mxCell id="jynlLXAI10efE11RgELN-671" value="ABM Activo" style="ellipse;whiteSpace=wrap;html=1;" parent="1" vertex="1">
                    <mxGeometry x="365.25" y="332" width="120" height="20" as="geometry"/>
                </mxCell>
                <mxCell id="jynlLXAI10efE11RgELN-676" value="Listar Personas" style="ellipse;whiteSpace=wrap;html=1;" parent="1" vertex="1">
                    <mxGeometry x="365.5" y="435" width="119" height="22" as="geometry"/>
                </mxCell>
                <mxCell id="jynlLXAI10efE11RgELN-677" value="ABM Persona" style="ellipse;whiteSpace=wrap;html=1;" parent="1" vertex="1">
                    <mxGeometry x="364.88" y="411" width="120" height="20" as="geometry"/>
                </mxCell>
                <mxCell id="73" value="Gestionar Seguridad" style="ellipse;whiteSpace=wrap;html=1;fontFamily=Helvetica;" parent="1" vertex="1">
                    <mxGeometry x="369.25" y="504" width="120" height="22" as="geometry"/>
                </mxCell>
                <mxCell id="jynlLXAI10efE11RgELN-688" value="HDWeTIL" style="text;html=1;strokeColor=none;fillColor=none;align=center;verticalAlign=middle;whiteSpace=wrap;rounded=0;" parent="1" vertex="1">
                    <mxGeometry x="395.25" y="10" width="60" height="30" as="geometry"/>
                </mxCell>
                <mxCell id="jynlLXAI10efE11RgELN-690" style="edgeStyle=none;html=1;endArrow=none;endFill=0;exitX=0.5;exitY=0.5;exitDx=0;exitDy=0;exitPerimeter=0;entryX=0;entryY=0.5;entryDx=0;entryDy=0;" parent="1" source="487" target="73" edge="1">
                    <mxGeometry relative="1" as="geometry">
                        <mxPoint x="120" y="504.100386100386" as="sourcePoint"/>
                        <mxPoint x="250" y="540" as="targetPoint"/>
                    </mxGeometry>
                </mxCell>
                <mxCell id="RtHYfJuVV97yDAeXpCly-489" style="edgeStyle=none;html=1;entryX=1;entryY=0.5;entryDx=0;entryDy=0;endArrow=none;endFill=0;exitX=0;exitY=0.3333333333333333;exitDx=0;exitDy=0;exitPerimeter=0;" parent="1" source="jynlLXAI10efE11RgELN-636" target="8" edge="1">
                    <mxGeometry relative="1" as="geometry"/>
                </mxCell>
                <mxCell id="RtHYfJuVV97yDAeXpCly-490" style="edgeStyle=none;html=1;endArrow=none;endFill=0;entryX=1;entryY=0.5;entryDx=0;entryDy=0;" parent="1" target="373" edge="1">
                    <mxGeometry relative="1" as="geometry">
                        <mxPoint x="660" y="175" as="sourcePoint"/>
                        <mxPoint x="590" y="215" as="targetPoint"/>
                    </mxGeometry>
                </mxCell>
                <mxCell id="PjNL1Q6nJKtWraKV_HU9-489" style="edgeStyle=none;html=1;exitX=1;exitY=0.3333333333333333;exitDx=0;exitDy=0;exitPerimeter=0;entryX=0;entryY=0.5;entryDx=0;entryDy=0;endArrow=none;endFill=0;" parent="1" source="79" target="jynlLXAI10efE11RgELN-665" edge="1">
                    <mxGeometry relative="1" as="geometry"/>
                </mxCell>
                <mxCell id="PjNL1Q6nJKtWraKV_HU9-490" style="edgeStyle=none;html=1;exitX=1;exitY=0.3333333333333333;exitDx=0;exitDy=0;exitPerimeter=0;entryX=0;entryY=0.5;entryDx=0;entryDy=0;endArrow=none;endFill=0;" parent="1" target="jynlLXAI10efE11RgELN-670" edge="1">
                    <mxGeometry relative="1" as="geometry">
                        <mxPoint x="116" y="311.0000000000002" as="sourcePoint"/>
                    </mxGeometry>
                </mxCell>
                <mxCell id="IkZddifMuReJIR_PnHik-488" style="edgeStyle=none;html=1;exitX=1;exitY=0.3333333333333333;exitDx=0;exitDy=0;exitPerimeter=0;endArrow=none;endFill=0;entryX=0;entryY=0.5;entryDx=0;entryDy=0;" parent="1" source="79" target="359" edge="1">
                    <mxGeometry relative="1" as="geometry">
                        <mxPoint x="220" y="407.8571428571429" as="targetPoint"/>
                    </mxGeometry>
                </mxCell>
                <mxCell id="TzHnkTOsn_3w8HlmReb_-488" style="edgeStyle=none;html=1;exitX=1;exitY=0.3333333333333333;exitDx=0;exitDy=0;exitPerimeter=0;entryX=0;entryY=0.5;entryDx=0;entryDy=0;endArrow=none;endFill=0;" parent="1" target="jynlLXAI10efE11RgELN-671" edge="1">
                    <mxGeometry relative="1" as="geometry">
                        <mxPoint x="116" y="311.0000000000002" as="sourcePoint"/>
                    </mxGeometry>
                </mxCell>
                <mxCell id="TzHnkTOsn_3w8HlmReb_-487" style="edgeStyle=none;html=1;exitX=1;exitY=0.3333333333333333;exitDx=0;exitDy=0;exitPerimeter=0;entryX=0;entryY=0.5;entryDx=0;entryDy=0;endArrow=none;endFill=0;" parent="1" source="79" target="jynlLXAI10efE11RgELN-664" edge="1">
                    <mxGeometry relative="1" as="geometry"/>
                </mxCell>
                <mxCell id="PjNL1Q6nJKtWraKV_HU9-491" style="edgeStyle=none;html=1;exitX=1;exitY=0.3333333333333333;exitDx=0;exitDy=0;exitPerimeter=0;entryX=0;entryY=0.5;entryDx=0;entryDy=0;endArrow=none;endFill=0;" parent="1" target="jynlLXAI10efE11RgELN-676" edge="1">
                    <mxGeometry relative="1" as="geometry">
                        <mxPoint x="116" y="311.0000000000002" as="sourcePoint"/>
                    </mxGeometry>
                </mxCell>
                <mxCell id="TzHnkTOsn_3w8HlmReb_-489" style="edgeStyle=none;html=1;exitX=1;exitY=0.3333333333333333;exitDx=0;exitDy=0;exitPerimeter=0;entryX=0;entryY=0.5;entryDx=0;entryDy=0;endArrow=none;endFill=0;" parent="1" target="jynlLXAI10efE11RgELN-677" edge="1">
                    <mxGeometry relative="1" as="geometry">
                        <mxPoint x="116" y="311.0000000000002" as="sourcePoint"/>
                    </mxGeometry>
                </mxCell>
                <mxCell id="7RkjllqHKWPmfpCr_LpX-488" value="Módulo Incidencias" style="text;html=1;strokeColor=none;fillColor=none;align=center;verticalAlign=middle;whiteSpace=wrap;rounded=0;strokeWidth=1;arcSize=12;fontSize=10;" parent="1" vertex="1">
                    <mxGeometry x="366.88" y="35" width="116" height="30" as="geometry"/>
                </mxCell>
                <mxCell id="7RkjllqHKWPmfpCr_LpX-489" value="Módulo Reportes" style="text;html=1;strokeColor=none;fillColor=none;align=center;verticalAlign=middle;whiteSpace=wrap;rounded=0;fontSize=10;" parent="1" vertex="1">
                    <mxGeometry x="361.51" y="117" width="131.5" height="30" as="geometry"/>
                </mxCell>
                <mxCell id="7RkjllqHKWPmfpCr_LpX-490" value="Módulo&amp;nbsp; Servicios" style="text;html=1;strokeColor=none;fillColor=none;align=center;verticalAlign=middle;whiteSpace=wrap;rounded=0;fontSize=10;" parent="1" vertex="1">
                    <mxGeometry x="369.25" y="226" width="116" height="30" as="geometry"/>
                </mxCell>
                <mxCell id="7RkjllqHKWPmfpCr_LpX-491" value="Módulo&amp;nbsp; Activos" style="text;html=1;strokeColor=none;fillColor=none;align=center;verticalAlign=middle;whiteSpace=wrap;rounded=0;fontSize=10;" parent="1" vertex="1">
                    <mxGeometry x="367" y="305" width="116" height="30" as="geometry"/>
                </mxCell>
                <mxCell id="7RkjllqHKWPmfpCr_LpX-492" value="Módulo&amp;nbsp; Persoans" style="text;html=1;strokeColor=none;fillColor=none;align=center;verticalAlign=middle;whiteSpace=wrap;rounded=0;fontSize=10;" parent="1" vertex="1">
                    <mxGeometry x="367.25" y="383" width="116" height="30" as="geometry"/>
                </mxCell>
                <mxCell id="7RkjllqHKWPmfpCr_LpX-493" value="Módulo&amp;nbsp; Configuraciones" style="text;html=1;strokeColor=none;fillColor=none;align=center;verticalAlign=middle;whiteSpace=wrap;rounded=0;fontSize=10;" parent="1" vertex="1">
                    <mxGeometry x="357" y="474" width="138" height="30" as="geometry"/>
                </mxCell>
                <mxCell id="l-4Qs5OfCV0jRhOPei8S-487" value="Listar Solicitudes" style="ellipse;whiteSpace=wrap;html=1;" parent="1" vertex="1">
                    <mxGeometry x="365" y="202" width="120" height="20" as="geometry"/>
                </mxCell>
                <mxCell id="PgRTaCavA2zI-Szis4YL-487" value="Gestionar Usuarios" style="ellipse;whiteSpace=wrap;html=1;fontFamily=Helvetica;" parent="1" vertex="1">
                    <mxGeometry x="365.63" y="534" width="120" height="22" as="geometry"/>
                </mxCell>
            </root>
        </mxGraphModel>
    </diagram>
</mxfile>